<svg xmlns="http://www.w3.org/2000/svg" version="1.1" xmlns:xlink="http://www.w3.org/1999/xlink" xmlns:svgjs="http://svgjs.dev/svgjs" width="2000" height="1500" viewBox="0 0 2000 1500"><rect width="2000" height="1500" fill="#ffffff"></rect><g transform="matrix(0.49407114624505927,0,0,0.49407114624505927,506.8023067452861,250.4048582995951)"><svg viewBox="0 0 244 247" data-background-color="#ffffff" preserveAspectRatio="xMidYMid meet" height="2024" width="2000" xmlns="http://www.w3.org/2000/svg" xmlns:xlink="http://www.w3.org/1999/xlink"><g id="tight-bounds" transform="matrix(1,0,0,1,-0.21567999999999188,-0.09999999999999432)"><svg viewBox="0 0 244.43135999999998 247.2" height="247.2" width="244.43135999999998"><g><svg></svg></g><g><svg viewBox="0 0 244.43135999999998 247.2" height="247.2" width="244.43135999999998"><g transform="matrix(1,0,0,1,0,87.63305473808123)"><svg viewBox="0 0 244.43135999999998 71.93389052383753" height="71.93389052383753" width="244.43135999999998"><g><svg viewBox="0 0 244.43135999999998 71.93389052383753" height="71.93389052383753" width="244.43135999999998"><g><svg viewBox="0 0 244.43135999999998 71.93389052383753" height="71.93389052383753" width="244.43135999999998"><g><svg viewBox="0 0 244.43135999999998 71.93389052383753" height="71.93389052383753" width="244.43135999999998"><g id="textblocktransform"><svg viewBox="0 0 244.43135999999998 71.93389052383753" height="71.93389052383753" width="244.43135999999998" id="textblock"><g><svg viewBox="0 0 244.43135999999998 71.93389052383753" height="71.93389052383753" width="244.43135999999998"><g transform="matrix(1,0,0,1,0,0)"><svg width="244.43135999999998" viewBox="-0.85 -36 169.88 50" height="71.93389052383753" data-palette-color="#a61713"><path d="M-0.85 4.35L-0.85 4.35Q-0.55 3.65 0.8 0.68 2.15-2.3 4.33-7.08 6.5-11.85 9.22-17.93 11.95-24 15-30.8L15-30.8Q15.15-31.15 15.33-31.73 15.5-32.3 15.5-32.85L15.5-32.85Q15.5-33.4 15.18-33.77 14.85-34.15 13.8-34.15L13.8-34.15Q11.7-34.15 10.33-32.73 8.95-31.3 8.28-29.2 7.6-27.1 7.6-25.05L7.6-25.05Q7.6-24.55 7.63-24.2 7.65-23.85 7.7-23.5L7.7-23.5Q6.75-23.5 6.18-24.18 5.6-24.85 5.33-25.83 5.05-26.8 5.05-27.6L5.05-27.6Q5.05-29.25 5.95-30.75 6.85-32.25 8.28-33.45 9.7-34.65 11.43-35.33 13.15-36 14.8-36L14.8-36Q16.45-36 17.57-35.08 18.7-34.15 19.28-31.75 19.85-29.35 19.85-24.8L19.85-24.8Q19.85-21.7 19.63-18.2 19.4-14.7 19.15-11.3 18.9-7.9 18.8-5.1L18.8-5.1Q19.6-8.15 21.08-11.6 22.55-15.05 24.33-18.48 26.1-21.9 27.85-24.9 29.6-27.9 31-30.1 32.4-32.3 33.05-33.3L33.05-33.3Q33.75-34.3 34.25-34.83 34.75-35.35 35.55-35.35L35.55-35.35Q36.25-35.35 37.15-35L37.15-35Q36.8-34.1 36.18-32.33 35.55-30.55 34.9-28L34.9-28Q34.1-24.95 33.3-21.08 32.5-17.2 31.83-13.2 31.15-9.2 30.75-5.68 30.35-2.15 30.35 0.25L30.35 0.25Q30.35 1.35 30.45 1.95 30.55 2.55 30.73 3.03 30.9 3.5 31.1 4.35L31.1 4.35Q29.4 4.35 28.5 3.8 27.6 3.25 27.3 2.02 27 0.8 27-1.25L27-1.25Q27-7.2 28.53-14.03 30.05-20.85 32-28.2L32-28.2Q30.55-26.35 28.98-23.53 27.4-20.7 25.83-17.43 24.25-14.15 22.83-10.88 21.4-7.6 20.3-4.8 19.2-2 18.6-0.15L18.6-0.15Q18.3-0.05 18.2 0 18.1 0.05 17.85 0.05L17.85 0.05Q16.5 0.05 16.07-1.55 15.65-3.15 15.65-6.05L15.65-6.05Q15.65-8.1 15.78-10.93 15.9-13.75 16.05-16.75 16.2-19.75 16.32-22.53 16.45-25.3 16.45-27.3L16.45-27.3Q16.45-28.3 16.43-28.95 16.4-29.6 16.35-30.1L16.35-30.1Q12.35-20.8 9.65-14.23 6.95-7.65 5.13-3.55 3.3 0.55 1.9 2.45 0.5 4.35-0.85 4.35ZM40.15 1.6L40.15 1.6Q38 1.6 37.1 0.28 36.2-1.05 36.2-2.95L36.2-2.95Q36.2-4.5 36.7-6.15 37.2-7.8 38.02-9.25 38.85-10.7 39.87-11.6 40.9-12.5 41.95-12.5L41.95-12.5Q42.2-12.5 42.47-12.43 42.75-12.35 43-12.25L43-12.25Q42.55-11.85 41.92-10.78 41.3-9.7 40.75-8.33 40.2-6.95 39.82-5.6 39.45-4.25 39.45-3.3L39.45-3.3Q39.45-1.8 39.95-1.13 40.45-0.45 41.25-0.45L41.25-0.45Q42.3-0.45 43.75-1.58 45.2-2.7 46.6-4.45L46.6-4.45Q45.2-5.6 44.42-7.48 43.65-9.35 43.65-11.3L43.65-11.3Q43.65-12.95 44.22-14.4 44.8-15.85 45.9-16.73 47-17.6 48.55-17.6L48.55-17.6Q50.6-17.6 51.3-16.5 52-15.4 52-13.75L52-13.75Q52-11.8 51.05-9.43 50.1-7.05 48.65-4.85L48.65-4.85Q49.55-4.35 50.55-4.35L50.55-4.35Q51.35-4.35 52.35-4.67 53.35-5 54.32-5.8 55.3-6.6 55.9-7.95L55.9-7.95 56.5-7.45Q55.5-5.1 53.67-4.13 51.85-3.15 50.2-3.15L50.2-3.15Q49.55-3.15 48.95-3.28 48.35-3.4 47.8-3.65L47.8-3.65Q46.1-1.4 44.07 0.1 42.05 1.6 40.15 1.6ZM47.5-5.75L47.5-5.75Q48.75-7.6 49.57-9.63 50.4-11.65 50.4-13.45L50.4-13.45Q50.4-14.9 49.97-15.58 49.55-16.25 48.9-16.25L48.9-16.25Q47.9-16.25 46.85-14.8 45.8-13.35 45.8-11.15L45.8-11.15Q45.8-9.7 46.22-8.22 46.65-6.75 47.5-5.75ZM58.7 1.5L58.7 1.5Q56.99 1.5 55.97-0.03 54.95-1.55 54.95-3.55L54.95-3.55Q54.95-5 55.42-6.9 55.9-8.8 56.59-10.65 57.3-12.5 58.05-13.7 58.8-14.9 59.34-14.9L59.34-14.9Q59.59-14.9 60.2-14.63 60.8-14.35 61.2-13.9L61.2-13.9Q60.65-13.05 59.84-11.3 59.05-9.55 58.45-7.55 57.84-5.55 57.84-3.85L57.84-3.85Q57.84-3.45 57.95-2.63 58.05-1.8 58.45-1.15 58.84-0.5 59.65-0.5L59.65-0.5Q60.59-0.5 61.59-1.48 62.59-2.45 63.62-4 64.64-5.55 65.59-7.35 66.55-9.15 67.37-10.8 68.19-12.45 68.75-13.55L68.75-13.55Q69.05-13.5 69.62-13.35 70.19-13.2 70.67-12.95 71.14-12.7 71.14-12.25L71.14-12.25Q71.14-12.05 70.64-10.93 70.14-9.8 69.47-8.18 68.8-6.55 68.3-4.9 67.8-3.25 67.8-2L67.8-2Q67.8-1.1 68.17-0.55 68.55 0 69.44 0L69.44 0Q70.5 0 72-0.95 73.5-1.9 75.05-3.73 76.59-5.55 77.8-8.1L77.8-8.1 78.44-7.65Q77.4-4.95 75.69-2.88 74-0.8 72.09 0.35 70.19 1.5 68.39 1.5L68.39 1.5Q67.09 1.5 66.32 1 65.55 0.5 65.22-0.35 64.89-1.2 64.89-2.2L64.89-2.2Q64.89-2.8 65-3.43 65.09-4.05 65.25-4.7L65.25-4.7Q64.34-3.05 63.3-1.63 62.25-0.2 61.09 0.65 59.95 1.5 58.7 1.5ZM82.09 2.55L82.09 2.55Q79.74 2.55 78.37 1.53 76.99 0.5 76.42-1 75.84-2.5 75.84-4L75.84-4Q75.84-5.5 76.24-6.3 76.64-7.1 77.22-7.5 77.79-7.9 78.32-8.1 78.84-8.3 79.04-8.5L79.04-8.5Q80.54-10.15 81.79-11.95 83.04-13.75 83.99-15.75L83.99-15.75 83.99-16.35Q83.99-18.2 84.62-18.98 85.24-19.75 85.94-19.75L85.94-19.75Q86.34-19.75 86.54-19.55 86.74-19.35 86.74-19.1L86.74-19.1Q86.74-18.85 86.59-18.3 86.44-17.75 86.44-16.9L86.44-16.9Q86.44-15.25 87.09-13.33 87.74-11.4 88.39-9.28 89.04-7.15 89.04-4.85L89.04-4.85Q89.04-4.2 88.97-3.58 88.89-2.95 88.74-2.4L88.74-2.4Q90.49-2.7 92.04-3.98 93.59-5.25 95.04-8.05L95.04-8.05 95.49-7.55Q94.54-4.8 92.64-3.38 90.74-1.95 88.49-1.6L88.49-1.6Q87.69 0.55 85.97 1.55 84.24 2.55 82.09 2.55ZM82.19 0.8L82.19 0.8Q82.79 0.8 83.79 0.4 84.79 0 85.34-1.65L85.34-1.65Q83.24-2.05 81.62-3.3 79.99-4.55 79.19-5.8L79.19-5.8Q78.09-5.75 78.09-4.05L78.09-4.05Q78.09-2.25 79.17-0.73 80.24 0.8 82.19 0.8ZM85.59-2.45L85.59-2.45Q85.69-2.95 85.74-3.5 85.79-4.05 85.79-4.8L85.79-4.8Q85.79-7.15 85.22-9.47 84.64-11.8 84.24-13.85L84.24-13.85Q83.09-11.95 81.82-10.23 80.54-8.5 79.39-7.35L79.39-7.35Q80.14-5.75 81.72-4.35 83.29-2.95 85.59-2.45ZM98.34 2.3L98.34 2.3Q96.19 2.3 95.04 1.05 93.89-0.2 93.89-2.65L93.89-2.65Q93.89-4.85 94.72-8.08 95.54-11.3 96.79-14.7L96.79-14.7Q96.29-14.8 95.84-14.88 95.39-14.95 94.99-15.1L94.99-15.1 94.99-16Q95.39-15.95 95.94-15.9 96.49-15.85 97.19-15.8L97.19-15.8Q98.24-18.5 99.44-21.03 100.64-23.55 101.81-25.53 102.99-27.5 104.06-28.68 105.14-29.85 105.89-29.85L105.89-29.85Q106.29-29.85 106.62-29.58 106.94-29.3 106.94-28.75L106.94-28.75Q106.94-27.9 105.89-25.98 104.84-24.05 103.29-21.4 101.74-18.75 100.29-15.65L100.29-15.65Q100.74-15.65 101.22-15.65 101.69-15.65 102.14-15.65L102.14-15.65Q103.79-15.65 105.62-15.7 107.44-15.75 109.29-15.95L109.29-15.95 109.29-15.05Q106.54-14.75 104.37-14.6 102.19-14.45 100.49-14.45L100.49-14.45Q100.29-14.45 100.12-14.45 99.94-14.45 99.74-14.45L99.74-14.45Q98.59-11.8 97.79-9 96.99-6.2 96.99-3.55L96.99-3.55Q96.99-1.4 97.64-0.48 98.29 0.45 99.79 0.45L99.79 0.45Q102.39 0.45 104.89-1.85 107.39-4.15 109.29-8.1L109.29-8.1 109.94-7.6Q108.74-4.8 106.92-2.55 105.09-0.3 102.89 1 100.69 2.3 98.34 2.3ZM110.74 2.35L110.74 2.35Q109.19 2.35 108.11 1.33 107.04 0.3 107.04-1.8L107.04-1.8Q107.04-3.6 107.84-5.68 108.64-7.75 110.04-9.78 111.44-11.8 113.21-13.48 114.99-15.15 116.96-16.15 118.94-17.15 120.89-17.15L120.89-17.15Q122.84-17.15 124.14-16.13 125.44-15.1 125.44-13.4L125.44-13.4Q125.44-12.15 124.76-11.7 124.09-11.25 122.99-11.25L122.99-11.25Q123.09-11.65 123.16-12.13 123.24-12.6 123.24-13L123.24-13Q123.24-14.15 122.69-14.98 122.14-15.8 120.79-15.8L120.79-15.8Q119.39-15.8 117.94-14.83 116.49-13.85 115.14-12.23 113.79-10.6 112.74-8.7 111.69-6.8 111.09-4.95 110.49-3.1 110.49-1.65L110.49-1.65Q110.49 0.3 111.84 0.3L111.84 0.3Q112.99 0.3 114.34-0.78 115.69-1.85 117.11-3.53 118.54-5.2 119.84-7 121.14-8.8 122.14-10.3L122.14-10.3Q122.34-10.6 122.39-10.6L122.39-10.6Q122.69-10.55 123.16-10.4 123.64-10.25 123.99-10 124.34-9.75 124.34-9.35L124.34-9.35Q124.34-8.9 123.89-8.13 123.44-7.35 122.89-6.35 122.34-5.35 121.89-4.33 121.44-3.3 121.44-2.4L121.44-2.4Q121.44-1.65 121.84-0.93 122.24-0.2 123.14-0.2L123.14-0.2Q124.49-0.2 126.69-2.18 128.89-4.15 131.14-8.1L131.14-8.1 131.64-7.6Q130.59-4.9 128.94-2.85 127.29-0.8 125.41 0.35 123.54 1.5 121.74 1.5L121.74 1.5Q119.89 1.5 119.01 0.4 118.14-0.7 118.14-2L118.14-2Q118.14-2.3 118.19-2.68 118.24-3.05 118.29-3.45L118.29-3.45Q116.14-0.55 114.36 0.9 112.59 2.35 110.74 2.35ZM129.49 14L129.49 14Q128.99 14 128.34 13.68 127.69 13.35 127.21 12.4 126.74 11.45 126.74 9.6L126.74 9.6Q126.74 7.4 127.49 3.88 128.24 0.35 129.54-3.9 130.84-8.15 132.54-12.63 134.24-17.1 136.21-21.28 138.19-25.45 140.26-28.78 142.34-32.1 144.34-34.05 146.34-36 148.14-36L148.14-36Q149.19-36 149.51-35.35 149.84-34.7 149.84-33.8L149.84-33.8Q149.84-31.65 148.66-29.1 147.49-26.55 145.54-23.98 143.59-21.4 141.24-19.07 138.89-16.75 136.49-15.1L136.49-15.1Q136.24-14.5 136.01-13.88 135.79-13.25 135.54-12.6L135.54-12.6Q136.09-12.5 136.41-12.03 136.74-11.55 136.79-11L136.79-11Q137.14-8.75 137.54-6.98 137.94-5.2 138.76-4.2 139.59-3.2 141.14-3.2L141.14-3.2Q142.89-3.2 144.09-4.48 145.29-5.75 146.69-8.1L146.69-8.1 147.44-7.6Q146.19-4.6 144.26-3.25 142.34-1.9 140.89-1.9L140.89-1.9Q139.99-1.9 139.01-2.35 138.04-2.8 137.19-3.55L137.19-3.55Q137.19-0.4 136.51 2.7 135.84 5.8 134.74 8.35 133.64 10.9 132.29 12.45 130.94 14 129.49 14ZM130.79 11.6L130.79 11.6Q131.34 11.6 132.04 10.6 132.74 9.6 133.41 7.98 134.09 6.35 134.64 4.4 135.19 2.45 135.54 0.5 135.89-1.45 135.89-3L135.89-3Q135.89-4.55 135.49-5.83 135.09-7.1 134.19-8.85L134.19-8.85Q132.94-5.1 131.94-1.6 130.94 1.9 130.39 4.7 129.84 7.5 129.84 9.2L129.84 9.2Q129.84 11.6 130.79 11.6ZM137.29-17.15L137.29-17.15Q140.54-20.15 142.91-23.18 145.29-26.2 146.59-28.58 147.89-30.95 147.89-31.95L147.89-31.95Q147.89-32.65 147.19-32.65L147.19-32.65Q145.89-32.65 144.24-30.53 142.59-28.4 140.79-24.9 138.99-21.4 137.29-17.15ZM148.13 2.35L148.13 2.35Q146.58 2.35 145.51 1.33 144.43 0.3 144.43-1.8L144.43-1.8Q144.43-3.6 145.23-5.68 146.03-7.75 147.43-9.78 148.83-11.8 150.61-13.48 152.38-15.15 154.36-16.15 156.33-17.15 158.28-17.15L158.28-17.15Q160.23-17.15 161.53-16.13 162.83-15.1 162.83-13.4L162.83-13.4Q162.83-12.15 162.16-11.7 161.48-11.25 160.38-11.25L160.38-11.25Q160.48-11.65 160.56-12.13 160.63-12.6 160.63-13L160.63-13Q160.63-14.15 160.08-14.98 159.53-15.8 158.18-15.8L158.18-15.8Q156.78-15.8 155.33-14.83 153.88-13.85 152.53-12.23 151.18-10.6 150.13-8.7 149.08-6.8 148.48-4.95 147.88-3.1 147.88-1.65L147.88-1.65Q147.88 0.3 149.23 0.3L149.23 0.3Q150.38 0.3 151.73-0.78 153.08-1.85 154.51-3.53 155.93-5.2 157.23-7 158.53-8.8 159.53-10.3L159.53-10.3Q159.73-10.6 159.78-10.6L159.78-10.6Q160.08-10.55 160.56-10.4 161.03-10.25 161.38-10 161.73-9.75 161.73-9.35L161.73-9.35Q161.73-8.9 161.28-8.13 160.83-7.35 160.28-6.35 159.73-5.35 159.28-4.33 158.83-3.3 158.83-2.4L158.83-2.4Q158.83-1.65 159.23-0.93 159.63-0.2 160.53-0.2L160.53-0.2Q161.88-0.2 164.08-2.18 166.28-4.15 168.53-8.1L168.53-8.1 169.03-7.6Q167.98-4.9 166.33-2.85 164.68-0.8 162.81 0.35 160.93 1.5 159.13 1.5L159.13 1.5Q157.28 1.5 156.41 0.4 155.53-0.7 155.53-2L155.53-2Q155.53-2.3 155.58-2.68 155.63-3.05 155.68-3.45L155.68-3.45Q153.53-0.55 151.76 0.9 149.98 2.35 148.13 2.35Z" opacity="1" transform="matrix(1,0,0,1,0,0)" fill="#a61713" class="wordmark-text-0" data-fill-palette-color="primary" id="text-0"></path></svg></g></svg></g></svg></g></svg></g><g></g></svg></g></svg></g></svg></g><path d="M0 81.633L0 1 244.431 1 244.431 81.633 237.944 81.633 237.944 7.487 6.487 7.487 6.487 81.633 0 81.633M0 165.567L0 246.2 244.431 246.2 244.431 165.567 237.944 165.567 237.944 239.713 6.487 239.713 6.487 165.567 0 165.567" fill="#a61713" stroke="transparent" data-fill-palette-color="tertiary"></path></svg></g><defs></defs></svg><rect width="244.43135999999998" height="247.2" fill="none" stroke="none" visibility="hidden"></rect></g></svg></g></svg>